<svg id="visual" viewBox="0 0 900 600" width="900" height="600" xmlns="http://www.w3.org/2000/svg" xmlns:xlink="http://www.w3.org/1999/xlink" version="1.1"><rect x="0" y="0" width="900" height="600" fill="#fff"></rect><defs><linearGradient id="grad1_0" x1="33.3%" y1="100%" x2="100%" y2="0%"><stop offset="20%" stop-color="#ffffff" stop-opacity="1"></stop><stop offset="80%" stop-color="#ffffff" stop-opacity="1"></stop></linearGradient></defs><defs><linearGradient id="grad2_0" x1="0%" y1="100%" x2="66.7%" y2="0%"><stop offset="20%" stop-color="#ffffff" stop-opacity="1"></stop><stop offset="80%" stop-color="#ffffff" stop-opacity="1"></stop></linearGradient></defs><g transform="translate(900, 600)"><path d="M-486.7 0C-469.7 -58.7 -452.6 -117.5 -432.4 -179.1C-412.2 -240.7 -388.9 -305.3 -344.2 -344.2C-299.4 -383.1 -233.2 -396.3 -172.2 -415.7C-111.3 -435.2 -55.6 -461 0 -486.7L0 0Z" fill="#f6f8f8"></path></g><g transform="translate(0, 0)"><path d="M486.7 0C439.3 44.8 391.8 89.7 376.9 156.1C362 222.6 379.7 310.6 344.2 344.2C308.7 377.7 220.1 356.7 153.8 371.4C87.6 386.1 43.8 436.4 0 486.7L0 0Z" fill="#f6f8f8"></path></g></svg>