<?xml version="1.0" standalone="no"?>
<!DOCTYPE svg PUBLIC "-//W3C//DTD SVG 20010904//EN"
 "http://www.w3.org/TR/2001/REC-SVG-20010904/DTD/svg10.dtd">
<svg version="1.0" xmlns="http://www.w3.org/2000/svg"
 width="128.000pt" height="857.0000pt" viewBox="0 0 1280.000000 857.000000"
 preserveAspectRatio="xMidYMid meet">

<g transform="translate(0.000000,857.000000) scale(0.100000,-0.100000)"
fill="#000000" stroke="none">
<path d="M5620 7140 c0 -5 -7 -10 -15 -10 -8 0 -19 -9 -25 -19 -7 -13 -10
-334 -10 -970 0 -792 2 -959 14 -1005 25 -94 76 -184 142 -248 71 -70 99 -87
254 -154 60 -26 223 -26 295 0 164 58 287 156 349 278 69 134 66 84 65 1081 0
496 -4 928 -8 959 -11 93 -22 98 -191 98 -77 0 -140 -3 -140 -8 0 -4 -10 -12
-22 -17 l-23 -10 -5 -955 c-4 -700 -8 -960 -17 -975 -14 -26 -62 -69 -90 -84
-12 -6 -47 -11 -78 -11 -54 0 -58 2 -106 51 l-49 50 -1 907 c0 499 -4 931 -8
960 -12 86 -24 92 -191 92 -87 0 -140 -4 -140 -10z"/>
<path d="M4860 6600 c-20 -20 -20 -33 -20 -817 1 -686 3 -801 15 -817 8 -11
15 -30 15 -43 0 -13 6 -36 13 -51 8 -15 20 -49 27 -77 31 -115 126 -230 440
-529 74 -71 191 -184 260 -250 371 -359 482 -461 505 -464 31 -4 89 36 181
124 40 38 147 141 240 229 533 509 686 662 729 729 70 112 107 213 125 342 5
38 14 101 20 141 7 47 10 302 8 755 l-3 683 -23 33 -23 32 -152 0 c-84 0 -157
-4 -163 -8 -6 -4 -13 -15 -17 -25 -4 -10 -7 -345 -8 -745 0 -800 -2 -827 -61
-951 -24 -50 -57 -91 -152 -186 -162 -162 -612 -591 -654 -623 l-33 -25 -34
19 c-19 11 -115 98 -213 194 -98 96 -255 248 -348 338 -225 217 -246 245 -287
382 -7 22 -12 315 -16 805 -6 715 -7 773 -24 798 l-17 27 -155 0 c-142 0 -157
-2 -175 -20z"/>
<path d="M4704 3349 c-120 -39 -187 -128 -185 -245 1 -79 23 -126 83 -178 24
-20 48 -40 53 -44 20 -14 121 -51 165 -61 83 -19 143 -46 163 -74 20 -26 20
-28 4 -61 -9 -19 -27 -42 -40 -51 -35 -22 -117 -30 -163 -15 -44 14 -114 76
-114 100 0 9 -6 24 -13 33 -10 15 -22 16 -82 10 -61 -7 -71 -11 -82 -33 -10
-22 -9 -35 9 -85 64 -174 281 -260 494 -194 56 18 78 32 119 73 66 67 85 110
85 192 0 101 -53 194 -134 237 -49 26 -164 67 -188 67 -37 0 -127 45 -137 68
-23 49 30 92 114 92 48 0 59 -4 85 -29 15 -17 31 -39 34 -49 10 -30 66 -36
164 -16 51 10 7 142 -69 207 -80 69 -247 95 -365 56z"/>
<path d="M6534 3351 c-130 -37 -197 -119 -198 -241 0 -48 5 -76 21 -105 22
-43 77 -105 92 -105 5 0 16 -6 23 -13 16 -15 110 -53 163 -66 37 -8 74 -20
132 -42 12 -4 29 -20 39 -34 14 -21 14 -30 4 -55 -18 -44 -53 -67 -111 -75
-97 -13 -187 36 -214 118 -10 32 -11 32 -70 29 -33 -1 -70 -4 -81 -7 -59 -13
-22 -138 66 -225 73 -72 151 -99 281 -100 139 0 262 67 315 172 23 45 26 61
22 127 -3 68 -7 82 -41 133 -24 35 -56 68 -85 86 -46 28 -148 65 -207 75 -16
3 -51 15 -77 27 -65 28 -74 62 -29 102 27 24 40 28 91 28 54 0 62 -3 90 -32
16 -18 33 -41 36 -50 5 -18 38 -23 109 -19 63 4 75 10 75 40 0 37 -35 119 -63
150 -81 87 -243 122 -383 82z"/>
<path d="M9780 3348 c-114 -36 -196 -113 -249 -233 -16 -37 -23 -78 -28 -160
-7 -150 7 -218 73 -337 18 -34 86 -93 139 -121 102 -55 275 -58 375 -6 61 32
135 119 155 182 22 70 18 90 -20 97 -17 4 -40 12 -52 18 -12 7 -35 12 -52 12
-26 0 -33 -6 -49 -43 -39 -89 -105 -131 -193 -125 -78 6 -124 42 -157 124 -22
53 -24 70 -20 169 5 120 18 155 86 219 27 25 41 30 107 34 67 4 79 2 110 -19
19 -13 35 -27 35 -31 0 -3 12 -21 26 -38 25 -28 30 -31 68 -25 75 12 114 25
120 40 9 23 -41 120 -83 160 -99 96 -248 127 -391 83z"/>
<path d="M2130 3338 l-25 -14 -3 -414 c-3 -485 -11 -450 109 -450 90 0 95 8
102 159 6 152 6 151 167 163 146 10 203 35 260 111 46 60 68 155 52 220 -6 23
-13 53 -16 67 -8 39 -90 125 -138 145 -58 24 -468 34 -508 13z m424 -189 c28
-27 43 -81 32 -123 -4 -16 -23 -35 -49 -51 -37 -21 -56 -25 -123 -25 -43 0
-85 4 -93 9 -11 7 -13 26 -8 91 9 117 26 132 143 127 59 -3 76 -8 98 -28z"/>
<path d="M2920 3338 l-25 -14 -2 -414 c-2 -249 1 -421 7 -430 14 -22 161 -28
179 -6 8 10 14 59 18 138 6 157 7 164 44 184 64 32 117 -15 252 -226 33 -52
62 -97 64 -99 8 -10 107 -19 150 -13 64 9 66 31 14 113 -22 35 -50 80 -61 99
-11 19 -29 49 -40 65 -11 17 -29 47 -40 67 l-20 37 53 45 c28 24 59 59 69 78
68 136 20 293 -108 358 -47 24 -57 24 -289 28 -185 2 -246 0 -265 -10z m461
-187 c55 -55 32 -140 -44 -163 -30 -8 -120 -9 -184 -2 l-53 7 0 56 c0 31 3 67
7 80 9 35 56 50 156 51 85 0 90 -1 118 -29z"/>
<path d="M3770 3341 c-24 -6 -25 -12 -32 -101 -8 -112 -5 -756 3 -765 16 -16
146 -25 359 -25 248 0 305 7 315 41 8 24 -3 99 -17 117 -8 9 -62 12 -202 13
-105 1 -204 4 -221 8 -29 6 -30 9 -33 65 -3 61 9 106 35 128 10 8 71 15 177
19 88 3 169 10 179 14 24 10 31 46 21 102 l-9 48 -191 6 c-105 3 -196 9 -203
14 -21 12 -8 102 18 128 20 21 34 22 209 27 103 3 193 9 200 13 18 12 16 122
-4 141 -13 14 -53 16 -297 15 -155 -1 -293 -4 -307 -8z"/>
<path d="M5283 3340 c-20 -8 -23 -17 -23 -68 0 -38 5 -64 14 -71 7 -6 57 -14
111 -18 63 -4 102 -11 111 -20 11 -12 14 -73 14 -343 0 -285 2 -331 16 -344
20 -20 158 -23 171 -3 4 6 10 156 13 332 l5 320 24 24 c21 21 38 26 111 31 47
3 91 10 98 14 18 11 16 121 -4 140 -13 14 -57 16 -327 15 -172 0 -322 -4 -334
-9z"/>
<path d="M7162 3343 c-12 -2 -27 -13 -32 -23 -7 -12 -9 -167 -8 -427 l3 -408
30 -15 c39 -19 537 -28 603 -10 l42 11 0 63 c0 39 -5 68 -13 74 -7 6 -96 12
-224 14 -152 2 -216 7 -224 15 -13 13 -14 89 -3 146 9 42 56 57 188 58 113 0
200 10 214 23 9 9 8 82 -2 119 l-6 27 -153 1 c-83 0 -172 4 -197 7 l-45 7 0
53 c1 40 6 57 23 75 21 21 33 22 210 27 103 3 193 9 200 13 18 12 16 122 -4
141 -13 14 -53 16 -297 15 -155 -1 -292 -4 -305 -6z"/>
<path d="M7945 3343 c-11 -3 -23 -8 -27 -12 -4 -4 -8 -195 -8 -426 -1 -387 1
-421 16 -432 21 -15 142 -17 164 -3 12 7 16 39 20 142 6 143 15 173 57 189 55
21 114 -30 211 -181 89 -140 105 -157 154 -164 63 -9 142 5 146 26 3 15 -21
63 -83 166 -5 9 -24 37 -41 62 -17 25 -41 64 -52 87 l-22 42 55 46 c79 68 98
112 94 216 -4 74 -8 89 -34 129 -44 65 -102 100 -183 111 -69 9 -432 10 -467
2z m458 -191 c20 -21 27 -38 27 -69 0 -79 -76 -112 -227 -99 -41 3 -79 8 -84
12 -12 7 -11 70 2 116 15 55 45 67 160 68 92 0 96 -1 122 -28z"/>
<path d="M8692 3339 c-17 -6 -22 -14 -18 -27 9 -27 35 -122 47 -165 5 -21 14
-45 19 -55 10 -18 19 -43 71 -197 16 -49 34 -99 39 -110 5 -11 13 -36 19 -55
9 -34 14 -49 54 -160 34 -96 36 -98 89 -109 121 -26 162 -10 199 81 34 82 49
124 63 173 6 22 15 46 20 54 5 7 12 27 17 45 4 17 20 63 34 101 15 39 31 86
37 105 5 19 14 40 19 45 4 6 12 29 18 50 5 22 14 54 20 70 5 17 15 56 22 88
15 71 10 77 -73 77 -70 0 -106 -13 -117 -42 -17 -45 -33 -94 -46 -138 -24 -81
-77 -234 -91 -265 -8 -16 -17 -45 -20 -62 -4 -18 -13 -38 -20 -44 -8 -6 -14
-18 -14 -25 0 -30 -16 -11 -36 44 -11 31 -26 73 -33 92 -7 19 -19 55 -26 80
-7 25 -19 61 -26 80 -88 246 -96 264 -121 271 -34 10 -120 9 -146 -2z"/>
<path d="M10415 3343 c-11 -3 -23 -10 -27 -17 -4 -6 -8 -199 -8 -429 l0 -417
28 -12 c33 -15 552 -24 602 -11 34 9 35 11 38 63 6 106 24 98 -228 102 -177 2
-222 6 -229 17 -9 14 -6 103 4 149 9 38 60 52 187 52 133 1 197 11 215 35 14
20 7 101 -10 123 -7 8 -51 12 -156 13 -80 0 -166 4 -191 7 -40 6 -45 10 -48
36 -2 16 -1 44 3 63 10 55 39 63 223 63 90 0 173 5 191 11 30 11 31 12 31 73
0 58 -2 64 -25 74 -26 12 -556 16 -600 5z"/>
</g>
</svg>
